<?xml version="1.0" ?><!DOCTYPE svg  PUBLIC '-//W3C//DTD SVG 1.1//EN'  'http://www.w3.org/Graphics/SVG/1.1/DTD/svg11.dtd'><svg enable-background="new 0 0 512 512" height="512px" id="Line_2_" version="1.1" viewBox="0 0 512 512" width="512px" xml:space="preserve" xmlns="http://www.w3.org/2000/svg" xmlns:xlink="http://www.w3.org/1999/xlink"><g id="bg_8_"><g><polygon fill="#5AE629" points="0,0 0,512 355,512 512,354 512,0   "/></g></g><g id="Line"><g><path d="M425,234.5C425,158.561,349.56,97,256.5,97C163.44,97,88,158.561,88,234.5    c0,68.88,62.069,125.922,143.054,135.933c2.504,0.408,4.117,1.081,5.375,1.656c4.782,2.606,8.812,6.044,8.57,9.911    c-0.267,7.211-3.932,16.521-5,24s0.118,13.267,10,13c19.23-1.336,126.906-79.895,144-105c0-0.001-0.003-0.002-0.002-0.003    C413.521,291.552,425,264.12,425,234.5z M190.5,277h-33c-4.142,0-7.5-3.357-7.5-7.5v-66c0-4.143,3.358-7.5,7.5-7.5    s7.5,3.357,7.5,7.5V262h25.5c4.142,0,7.5,3.357,7.5,7.5S194.642,277,190.5,277z M224,269.5c0,4.143-3.358,7.5-7.5,7.5    s-7.5-3.357-7.5-7.5v-66c0-4.143,3.358-7.5,7.5-7.5s7.5,3.357,7.5,7.5V269.5z M304,269.5c0,4.143-3.357,7.5-7.5,7.5    c-2.698,0-4.472-1.932-8.5-7l-34-43.598V269.5c0,4.143-3.358,7.5-7.5,7.5s-7.5-3.357-7.5-7.5v-66c0-4.143,3.358-7.5,7.5-7.5    c3.519,0,5.331,1.881,9.5,7l33,44v-43.5c0-4.143,3.357-7.5,7.5-7.5s7.5,3.357,7.5,7.5V269.5z M359.059,229    c4.386,0,7.941,3.582,7.941,8s-3.556,8-7.941,8H334v17h25.5c4.143,0,7.5,3.357,7.5,7.5s-3.357,7.5-7.5,7.5h-35    c-4.143,0-7.5-3.357-7.5-7.5v-66c0-3.973,3.091-7.215,6.997-7.475L324,196h35.059c4.386,0,7.941,3.582,7.941,8s-3.556,8-7.941,8    H334v17H359.059z" fill="#FFFFFF"/></g></g><g id="Clip_Light_8_"><g><polygon fill="#7DF752" points="355,354 355,512.02 512,354   "/></g></g><g id="Shadow_Clip_8_" opacity="0.102"><g><polygon points="198,512 355,512 355,353.98   "/></g></g></svg>